<mxfile host="app.diagrams.net" modified="2024-02-22T10:34:12.967Z" agent="Mozilla/5.0 (Macintosh; Intel Mac OS X 10_15_7) AppleWebKit/537.36 (KHTML, like Gecko) Chrome/120.0.0.0 Safari/537.36" etag="2uTH4Wk1L3eepUGRC7sr" version="23.1.5" type="device">
  <diagram name="Page-1" id="efa7a0a1-bf9b-a30e-e6df-94a7791c09e9">
    <mxGraphModel dx="2385" dy="1240" grid="0" gridSize="10" guides="1" tooltips="1" connect="1" arrows="1" fold="1" page="1" pageScale="1" pageWidth="826" pageHeight="1169" background="none" math="0" shadow="0">
      <root>
        <mxCell id="0" />
        <mxCell id="1" parent="0" />
        <mxCell id="UujWbPuHcatMnqA6nCTD-118" value="&lt;font color=&quot;#000012&quot; style=&quot;font-size: 30px;&quot;&gt;User&lt;/font&gt;" style="shape=umlActor;verticalLabelPosition=bottom;verticalAlign=top;html=1;outlineConnect=0;fillColor=#dae8fc;strokeColor=#000033;" vertex="1" parent="1">
          <mxGeometry x="120" y="544" width="60" height="100" as="geometry" />
        </mxCell>
        <mxCell id="UujWbPuHcatMnqA6nCTD-119" value="Recipe List" style="whiteSpace=wrap;html=1;aspect=fixed;fillColor=#dae8fc;strokeColor=#000033;fontSize=19;" vertex="1" parent="1">
          <mxGeometry x="350" y="359.64" width="80" height="80" as="geometry" />
        </mxCell>
        <mxCell id="UujWbPuHcatMnqA6nCTD-141" value="" style="edgeStyle=orthogonalEdgeStyle;rounded=0;orthogonalLoop=1;jettySize=auto;html=1;fontSize=19;strokeColor=#000033;" edge="1" parent="1" source="UujWbPuHcatMnqA6nCTD-122" target="UujWbPuHcatMnqA6nCTD-140">
          <mxGeometry relative="1" as="geometry" />
        </mxCell>
        <mxCell id="UujWbPuHcatMnqA6nCTD-122" value="Add Recipes" style="whiteSpace=wrap;html=1;aspect=fixed;fillColor=#dae8fc;strokeColor=#000033;fontSize=19;" vertex="1" parent="1">
          <mxGeometry x="350" y="727" width="127" height="127" as="geometry" />
        </mxCell>
        <mxCell id="UujWbPuHcatMnqA6nCTD-135" value="" style="edgeStyle=orthogonalEdgeStyle;rounded=0;orthogonalLoop=1;jettySize=auto;html=1;fontSize=19;strokeColor=#000033;" edge="1" parent="1" source="UujWbPuHcatMnqA6nCTD-126">
          <mxGeometry relative="1" as="geometry">
            <mxPoint x="390" y="344" as="targetPoint" />
          </mxGeometry>
        </mxCell>
        <mxCell id="UujWbPuHcatMnqA6nCTD-126" value="Recioe Data" style="shape=cylinder3;whiteSpace=wrap;html=1;boundedLbl=1;backgroundOutline=1;size=15;fillColor=#d5e8d4;strokeColor=#000033;" vertex="1" parent="1">
          <mxGeometry x="500" y="134" width="100" height="130" as="geometry" />
        </mxCell>
        <mxCell id="UujWbPuHcatMnqA6nCTD-128" value="" style="endArrow=classic;html=1;rounded=0;fontSize=19;strokeColor=#000033;" edge="1" parent="1">
          <mxGeometry width="50" height="50" relative="1" as="geometry">
            <mxPoint x="450" y="406" as="sourcePoint" />
            <mxPoint x="630" y="534" as="targetPoint" />
            <Array as="points" />
          </mxGeometry>
        </mxCell>
        <mxCell id="UujWbPuHcatMnqA6nCTD-129" value="Search Recipe" style="whiteSpace=wrap;html=1;aspect=fixed;fillColor=#dae8fc;strokeColor=#000033;fontSize=19;" vertex="1" parent="1">
          <mxGeometry x="660" y="514.64" width="109.36" height="109.36" as="geometry" />
        </mxCell>
        <mxCell id="UujWbPuHcatMnqA6nCTD-130" value="" style="endArrow=classic;html=1;rounded=0;fontSize=19;fontColor=#000033;strokeColor=#000033;" edge="1" parent="1">
          <mxGeometry width="50" height="50" relative="1" as="geometry">
            <mxPoint x="200" y="596" as="sourcePoint" />
            <mxPoint x="340" y="446" as="targetPoint" />
            <Array as="points" />
          </mxGeometry>
        </mxCell>
        <mxCell id="UujWbPuHcatMnqA6nCTD-132" value="" style="endArrow=classic;html=1;rounded=0;fontSize=19;strokeColor=#000033;" edge="1" parent="1">
          <mxGeometry width="50" height="50" relative="1" as="geometry">
            <mxPoint x="200" y="616" as="sourcePoint" />
            <mxPoint x="330" y="766" as="targetPoint" />
            <Array as="points" />
          </mxGeometry>
        </mxCell>
        <mxCell id="UujWbPuHcatMnqA6nCTD-136" value="" style="endArrow=classic;html=1;rounded=0;fontSize=19;strokeColor=#000033;" edge="1" parent="1">
          <mxGeometry width="50" height="50" relative="1" as="geometry">
            <mxPoint x="452" y="391" as="sourcePoint" />
            <mxPoint x="662" y="309" as="targetPoint" />
            <Array as="points">
              <mxPoint x="582" y="339" />
            </Array>
          </mxGeometry>
        </mxCell>
        <mxCell id="UujWbPuHcatMnqA6nCTD-139" value="" style="edgeStyle=orthogonalEdgeStyle;rounded=0;orthogonalLoop=1;jettySize=auto;html=1;fontSize=19;strokeColor=#000033;" edge="1" parent="1" source="UujWbPuHcatMnqA6nCTD-137">
          <mxGeometry relative="1" as="geometry">
            <mxPoint x="870" y="314" as="targetPoint" />
          </mxGeometry>
        </mxCell>
        <mxCell id="UujWbPuHcatMnqA6nCTD-137" value="Selected recipe" style="whiteSpace=wrap;html=1;aspect=fixed;fillColor=#dae8fc;strokeColor=#000033;fontSize=19;" vertex="1" parent="1">
          <mxGeometry x="680" y="264" width="100" height="100" as="geometry" />
        </mxCell>
        <mxCell id="UujWbPuHcatMnqA6nCTD-138" value="&amp;nbsp;Details" style="whiteSpace=wrap;html=1;aspect=fixed;fillColor=#dae8fc;strokeColor=#000033;fontSize=19;" vertex="1" parent="1">
          <mxGeometry x="891" y="264" width="110" height="110" as="geometry" />
        </mxCell>
        <mxCell id="UujWbPuHcatMnqA6nCTD-143" value="" style="edgeStyle=orthogonalEdgeStyle;rounded=0;orthogonalLoop=1;jettySize=auto;html=1;fontSize=19;strokeColor=#000033;" edge="1" parent="1" source="UujWbPuHcatMnqA6nCTD-140" target="UujWbPuHcatMnqA6nCTD-142">
          <mxGeometry relative="1" as="geometry" />
        </mxCell>
        <mxCell id="UujWbPuHcatMnqA6nCTD-140" value="Input Data" style="whiteSpace=wrap;html=1;aspect=fixed;fillColor=#dae8fc;strokeColor=#000033;fontSize=19;" vertex="1" parent="1">
          <mxGeometry x="549" y="727" width="127" height="127" as="geometry" />
        </mxCell>
        <mxCell id="UujWbPuHcatMnqA6nCTD-145" value="" style="edgeStyle=orthogonalEdgeStyle;rounded=0;orthogonalLoop=1;jettySize=auto;html=1;exitX=1;exitY=0.5;exitDx=0;exitDy=0;fontSize=19;strokeColor=#000033;" edge="1" parent="1" source="UujWbPuHcatMnqA6nCTD-142" target="UujWbPuHcatMnqA6nCTD-144">
          <mxGeometry relative="1" as="geometry">
            <mxPoint x="860" y="767" as="sourcePoint" />
          </mxGeometry>
        </mxCell>
        <mxCell id="UujWbPuHcatMnqA6nCTD-142" value="Submit" style="whiteSpace=wrap;html=1;aspect=fixed;fillColor=#dae8fc;strokeColor=#000033;fontSize=19;" vertex="1" parent="1">
          <mxGeometry x="753" y="727" width="127" height="127" as="geometry" />
        </mxCell>
        <mxCell id="UujWbPuHcatMnqA6nCTD-147" value="" style="edgeStyle=orthogonalEdgeStyle;rounded=0;orthogonalLoop=1;jettySize=auto;html=1;fontSize=19;strokeColor=#000033;" edge="1" parent="1" source="UujWbPuHcatMnqA6nCTD-144" target="UujWbPuHcatMnqA6nCTD-146">
          <mxGeometry relative="1" as="geometry" />
        </mxCell>
        <mxCell id="UujWbPuHcatMnqA6nCTD-144" value="" style="shape=waypoint;sketch=0;size=6;pointerEvents=1;points=[];fillColor=#dae8fc;resizable=0;rotatable=0;perimeter=centerPerimeter;snapToPoint=1;strokeColor=#000033;fontSize=19;" vertex="1" parent="1">
          <mxGeometry x="1160" y="184" width="20" height="20" as="geometry" />
        </mxCell>
        <mxCell id="UujWbPuHcatMnqA6nCTD-146" value="" style="shape=waypoint;sketch=0;size=6;pointerEvents=1;points=[];fillColor=#dae8fc;resizable=0;rotatable=0;perimeter=centerPerimeter;snapToPoint=1;strokeColor=#000033;fontSize=19;" vertex="1" parent="1">
          <mxGeometry x="600" y="184" width="20" height="20" as="geometry" />
        </mxCell>
        <mxCell id="UujWbPuHcatMnqA6nCTD-148" value="Post Req" style="shape=tape;whiteSpace=wrap;html=1;direction=west;fillColor=#b1ddf0;strokeColor=#000033;fontSize=19;" vertex="1" parent="1">
          <mxGeometry x="1090" y="459" width="160" height="90" as="geometry" />
        </mxCell>
        <mxCell id="UujWbPuHcatMnqA6nCTD-149" value="Get Req" style="shape=tape;whiteSpace=wrap;html=1;direction=west;fillColor=#b1ddf0;strokeColor=#000033;fontSize=19;" vertex="1" parent="1">
          <mxGeometry x="325" y="224" width="130" height="90" as="geometry" />
        </mxCell>
        <mxCell id="UujWbPuHcatMnqA6nCTD-152" value="&lt;font color=&quot;#000012&quot; style=&quot;font-size: 15px;&quot;&gt;JSON Server&lt;/font&gt;" style="text;html=1;align=center;verticalAlign=middle;resizable=0;points=[];autosize=1;strokeColor=#000033;fillColor=none;" vertex="1" parent="1">
          <mxGeometry x="491" y="269" width="106" height="30" as="geometry" />
        </mxCell>
      </root>
    </mxGraphModel>
  </diagram>
</mxfile>
